<?xml version="1.0" standalone="no"?>
<!DOCTYPE svg PUBLIC "-//W3C//DTD SVG 20010904//EN"
 "http://www.w3.org/TR/2001/REC-SVG-20010904/DTD/svg10.dtd">
<svg version="1.0" xmlns="http://www.w3.org/2000/svg"
 width="260.000000pt" height="260.000000pt" viewBox="0 0 260.000000 260.000000"
 preserveAspectRatio="xMidYMid meet">
<metadata>
Created by potrace 1.11, written by Peter Selinger 2001-2013
</metadata>
<g transform="translate(0.000000,260.000000) scale(0.100000,-0.100000)"
fill="#000000" stroke="none">
<path d="M1300 2597 c-3 -3 -27 -8 -55 -10 -27 -3 -50 -6 -50 -7 0 -1 -9 -3
-20 -4 -36 -4 -119 -39 -172 -73 -110 -70 -168 -154 -202 -292 -14 -59 -16
-178 -13 -1138 l3 -1073 107 0 107 0 0 344 0 345 75 -7 c191 -18 338 3 430 59
8 5 31 17 50 27 118 58 216 180 244 303 20 89 21 259 2 322 -8 26 -12 47 -9
47 9 0 -60 115 -76 127 -9 7 -12 13 -8 13 5 0 -24 27 -65 60 -47 39 -120 84
-205 125 -72 36 -134 65 -137 65 -4 0 -25 12 -49 27 -23 14 -44 26 -47 27 -14
0 -68 36 -107 71 -89 79 -118 189 -70 267 28 46 60 71 134 105 52 24 70 27
173 28 130 0 203 -8 273 -31 53 -17 56 -17 62 15 2 11 6 25 10 30 12 20 44
166 37 172 -10 9 -120 37 -169 43 -75 10 -248 18 -253 13z m58 -1103 c31 -10
76 -30 99 -46 47 -31 105 -97 97 -110 -3 -4 -2 -8 3 -8 12 0 33 -74 33 -117 0
-21 -9 -57 -20 -80 -10 -24 -17 -43 -14 -43 16 0 -73 -80 -108 -98 -64 -31
-88 -35 -273 -39 l-170 -5 0 279 c-1 153 3 281 8 284 19 14 288 0 345 -17z"/>
</g>
</svg>
